#!OML:ASF G:\JayActor3\Patient Classification 1\Patient 1\Session 5\male.ASF
:FULLY-SPECIFIED
:DEGREES
1229
root 72.6226 15.7336 -5.69525 58.3035 -86.5968 -50.6803
lowerback 17.519 -0.567757 4.08001
upperback 7.41115 -0.520026 0.547733
thorax -1.89893 -0.378361 -1.62807
lowerneck -0.0409452 -0.363172 1.42543
upperneck -7.46232 -0.464623 1.19974
head -2.33421 -0.340362 0.147987
rclavicle -8.39865e-015 -2.35187e-014
rhumerus -26.7238 -3.88404 -87.4146
rradius 35.4909
rwrist 1.72052
rhand -20.2248 -8.0816
rfingers 7.12502
rthumb 6.12279 -37.9731
lclavicle -8.39865e-015 -2.35187e-014
lhumerus -25.0668 -10.2844 87.536
lradius 29.0046
lwrist 23.3639
lhand -19.2129 12.6184
lfingers 7.12502
lthumb 7.0996 42.4793
rfemur -28.8818 0.386844 30.2534
rtibia 37.3307
rfoot -20.9378 -22.2625
rtoes 11.4499
lfemur -33.5854 1.45177 -16.8528
ltibia 45.6227
lfoot -8.79925 10.1236
ltoes -10.9137
1230
root 72.6073 15.7451 -5.68963 58.4619 -86.7086 -51.096
lowerback 17.098 -0.542513 3.92274
upperback 7.40847 -0.524939 0.552336
thorax -1.68342 -0.377179 -1.53682
lowerneck -0.298236 -0.362839 1.39779
upperneck -7.11946 -0.47303 1.16188
head -2.17502 -0.337022 0.13896
rclavicle -3.73032e-015 -8.40486e-015
rhumerus -26.6209 -4.0559 -87.2885
rradius 35.5541
rwrist 2.35673
rhand -20.0459 -7.51226
rfingers 7.12502
rthumb 6.29552 -37.3987
lclavicle -3.73032e-015 -8.40486e-015
lhumerus -25.1095 -10.0973 87.4849
lradius 29.3928
lwrist 23.4336
lhand -19.1649 12.7215
lfingers 7.12502
lthumb 7.14594 42.5808
rfemur -28.3401 0.305686 30.1749
rtibia 37.0324
rfoot -21.2409 -22.0485
rtoes 12.1637
lfemur -32.6515 1.53997 -16.9215
ltibia 45.1893
lfoot -8.49206 9.90147
ltoes -11.3801
1231
root 72.5921 15.7556 -5.68425 58.555 -86.7984 -51.4435
lowerback 16.7047 -0.525688 3.79534
upperback 7.38694 -0.532205 0.554969
thorax -1.50184 -0.377246 -1.4639
lowerneck -0.550424 -0.36983 1.36779
upperneck -6.75608 -0.489914 1.13635
head -2.01127 -0.338034 0.134376
rclavicle 3.721e-015 -1.63997e-015
rhumerus -26.5762 -4.21983 -87.2156
rradius 35.6623
rwrist 2.66855
rhand -20.154 -6.86523
rfingers 7.12502
rthumb 6.1911 -36.7548
lclavicle 3.721e-015 -1.63997e-015
lhumerus -25.1674 -9.89271 87.4295
lradius 29.7925
lwrist 23.4994
lhand -19.1019 12.8114
lfingers 7.12502
lthumb 7.20676 42.6687
rfemur -27.82 0.220907 30.1081
rtibia 36.7543
rfoot -21.5101 -21.8467
rtoes 12.7916
lfemur -31.6993 1.62405 -16.9858
ltibia 44.6076
lfoot -8.32942 9.64606
ltoes -11.9304
1232
root 72.577 15.7648 -5.67923 58.5748 -86.8558 -51.7006
lowerback 16.3377 -0.519159 3.71519
upperback 7.33148 -0.540906 0.551549
thorax -1.36957 -0.377457 -1.42346
lowerneck -0.788908 -0.381671 1.34771
upperneck -6.36744 -0.511946 1.11769
head -1.84311 -0.341773 0.130333
rclavicle -3.01904e-015 -1.05232e-014
rhumerus -26.5905 -4.42231 -87.1765
rradius 35.7918
rwrist 2.83444
rhand -20.297 -6.35172
rfingers 7.12502
rthumb 6.05313 -36.2452
lclavicle -3.01904e-015 -1.05232e-014
lhumerus -25.2674 -9.71056 87.3724
lradius 30.2137
lwrist 23.5903
lhand -19.0267 12.8999
lfingers 7.12502
lthumb 7.2794 42.7547
rfemur -27.3329 0.133312 30.0596
rtibia 36.502
rfoot -21.7599 -21.6488
rtoes 13.2882
lfemur -30.7596 1.69007 -17.0362
ltibia 43.8882
lfoot -8.32267 9.39042
ltoes -12.4625
1233
root 72.5626 15.7732 -5.67443 58.4841 -86.8937 -51.8436
lowerback 16.0036 -0.515089 3.67648
upperback 7.25367 -0.543483 0.533929
thorax -1.27748 -0.374018 -1.42201
lowerneck -1.01016 -0.406408 1.35358
upperneck -5.96208 -0.550099 1.10469
head -1.67405 -0.354154 0.123911
rclavicle 8.53998e-015 2.96313e-014
rhumerus -26.6409 -4.68225 -87.1627
rradius 35.923
rwrist 2.9312
rhand -20.3923 -6.04649
rfingers 7.12502
rthumb 5.96104 -35.9426
lclavicle 8.53998e-015 2.96313e-014
lhumerus -25.3952 -9.59103 87.3151
lradius 30.6599
lwrist 23.7471
lhand -18.9334 12.9735
lfingers 7.12502
lthumb 7.36944 42.8252
rfemur -26.8702 0.0491446 30.0137
rtibia 36.2786
rfoot -21.9662 -21.451
rtoes 13.6335
lfemur -29.8273 1.74406 -17.088
ltibia 43.0358
lfoot -8.44557 9.1717
ltoes -12.8257
1234
root 72.5482 15.781 -5.66944 58.3279 -86.936 -51.9166
lowerback 15.6829 -0.505929 3.65422
upperback 7.1626 -0.535553 0.500706
thorax -1.20548 -0.364935 -1.44771
lowerneck -1.20962 -0.437256 1.39028
upperneck -5.5597 -0.59617 1.0843
head -1.51124 -0.371137 0.110205
rclavicle 6.17475e-015 8.49494e-015
rhumerus -26.7137 -4.99486 -87.1592
rradius 36.0549
rwrist 3.03838
rhand -20.3204 -6.05636
rfingers 7.12502
rthumb 6.03047 -35.9505
lclavicle 6.17475e-015 8.49494e-015
lhumerus -25.5492 -9.48471 87.2406
lradius 31.1341
lwrist 23.8455
lhand -18.7521 13.0504
lfingers 7.12502
lthumb 7.54443 42.8958
rfemur -26.4292 -0.0370843 29.9554
rtibia 36.0813
rfoot -22.1398 -21.2399
rtoes 13.8939
lfemur -28.9027 1.79558 -17.1616
ltibia 42.0683
lfoot -8.6359 9.037
ltoes -12.9095
1235
root 72.5328 15.7885 -5.66422 57.993 -86.9867 -51.8119
lowerback 15.3713 -0.492743 3.63645
upperback 7.06553 -0.521078 0.453298
thorax -1.14393 -0.352405 -1.49162
lowerneck -1.40834 -0.470368 1.45129
upperneck -5.1429 -0.645833 1.05579
head -1.34544 -0.390085 0.0899727
rclavicle 3.29237e-016 1.00138e-014
rhumerus -26.8038 -5.35284 -87.1583
rradius 36.1934
rwrist 3.1977
rhand -20.1958 -6.07233
rfingers 7.12502
rthumb 6.15074 -35.963
lclavicle 3.29237e-016 1.00138e-014
lhumerus -25.7173 -9.28982 87.1127
lradius 31.6213
lwrist 23.6697
lhand -18.3106 13.1237
lfingers 7.12502
lthumb 7.97058 42.9535
rfemur -26.0001 -0.138998 29.8843
rtibia 35.9025
rfoot -22.3084 -21.0161
rtoes 14.1853
lfemur -27.9761 1.84307 -17.2595
ltibia 41.0078
lfoot -8.82548 9.00201
ltoes -12.6543
1236
root 72.5163 15.7955 -5.65868 57.6117 -87.0468 -51.6725
lowerback 15.0673 -0.475174 3.61813
upperback 6.96998 -0.50099 0.398651
thorax -1.08407 -0.337149 -1.54345
lowerneck -1.59546 -0.508535 1.52727
upperneck -4.72002 -0.702569 1.02154
head -1.18119 -0.412674 0.0656224
rclavicle 8.26199e-016 1.83627e-014
rhumerus -26.9119 -5.73185 -87.1554
rradius 36.3499
rwrist 3.39482
rhand -20.0343 -6.08472
rfingers 7.12502
rthumb 6.30666 -35.9708
lclavicle 8.26199e-016 1.83627e-014
lhumerus -25.886 -8.95162 86.9364
lradius 32.1134
lwrist 23.2134
lhand -17.7052 13.2354
lfingers 7.12502
lthumb 8.55488 43.0421
rfemur -25.562 -0.259434 29.8089
rtibia 35.7329
rfoot -22.4794 -20.7858
rtoes 14.5526
lfemur -27.04 1.90698 -17.3771
ltibia 39.8941
lfoot -8.96311 9.06809
ltoes -12.0646
1237
root 72.4981 15.8024 -5.65275 57.1971 -87.1151 -51.5126
lowerback 14.7571 -0.45874 3.58296
upperback 6.88898 -0.486025 0.349856
thorax -1.00526 -0.324889 -1.57877
lowerneck -1.79702 -0.537804 1.59416
upperneck -4.28459 -0.748521 0.975961
head -1.01197 -0.429423 0.0392522
rclavicle -6.98231e-015 -1.09829e-014
rhumerus -27.0154 -6.09053 -87.1435
rradius 36.525
rwrist 3.6269
rhand -19.8279 -6.10415
rfingers 7.12502
rthumb 6.50593 -35.9842
lclavicle -6.98231e-015 -1.09829e-014
lhumerus -26.0263 -8.31063 86.6955
lradius 32.5915
lwrist 22.3708
lhand -16.9284 13.384
lfingers 7.12502
lthumb 9.30445 43.1587
rfemur -25.1175 -0.405087 29.7347
rtibia 35.5664
rfoot -22.6638 -20.5485
rtoes 15.0921
lfemur -26.0891 1.99447 -17.5093
ltibia 38.7661
lfoot -9.02844 9.20947
ltoes -11.2486
1238
root 72.4782 15.8094 -5.64641 56.8496 -87.1842 -51.4223
lowerback 14.4284 -0.443749 3.53277
upperback 6.82146 -0.476262 0.314574
thorax -0.902171 -0.315583 -1.59073
lowerneck -2.02217 -0.55843 1.64626
upperneck -3.83355 -0.784052 0.917852
head -0.835415 -0.440498 0.0114793
rclavicle 3.2551e-015 1.41883e-014
rhumerus -27.1054 -6.40712 -87.1233
rradius 36.7117
rwrist 3.86155
rhand -19.6174 -6.13792
rfingers 7.12502
rthumb 6.70913 -36.0116
lclavicle 3.2551e-015 1.41883e-014
lhumerus -26.1494 -7.5386 86.4571
lradius 33.0871
lwrist 21.475
lhand -16.2026 13.4863
lfingers 7.12502
lthumb 10.0047 43.2285
rfemur -24.6721 -0.565305 29.6681
rtibia 35.4003
rfoot -22.856 -20.3063
rtoes 15.7905
lfemur -25.1434 2.13149 -17.65
ltibia 37.673
lfoot -9.07258 9.36811
ltoes -10.3846
1239
root 72.4576 15.8168 -5.63927 56.6754 -87.268 -51.4957
lowerback 14.0865 -0.430519 3.46009
upperback 6.75763 -0.471875 0.290402
thorax -0.787954 -0.309532 -1.57761
lowerneck -2.26875 -0.57004 1.67343
upperneck -3.36101 -0.807954 0.854661
head -0.650215 -0.445301 -0.0137213
rclavicle -2.64632e-015 1.56543e-014
rhumerus -27.1843 -6.66584 -87.0987
rradius 36.9049
rwrist 4.07802
rhand -19.4221 -6.19563
rfingers 7.12502
rthumb 6.89768 -36.0633
lclavicle -2.64632e-015 1.56543e-014
lhumerus -26.2578 -6.68313 86.2473
lradius 33.5981
lwrist 20.674
lhand -15.6546 13.5757
lfingers 7.12502
lthumb 10.5334 43.2917
rfemur -24.2543 -0.729552 29.5963
rtibia 35.2373
rfoot -23.015 -20.0527
rtoes 16.689
lfemur -24.2279 2.35698 -17.8192
ltibia 36.6496
lfoot -9.13281 9.51903
ltoes -9.55392
1240
root 72.4361 15.8243 -5.63162 56.64 -87.3543 -51.6818
lowerback 13.7295 -0.420955 3.37707
upperback 6.68406 -0.472482 0.278081
thorax -0.675674 -0.306286 -1.54559
lowerneck -2.5403 -0.570311 1.67365
upperneck -2.86422 -0.816759 0.789518
head -0.455153 -0.442247 -0.0350596
rclavicle -8.57259e-016 -2.95692e-015
rhumerus -27.2638 -6.88361 -87.0673
rradius 37.1048
rwrist 4.29247
rhand -19.2351 -6.2897
rfingers 7.12502
rthumb 7.07819 -36.1513
lclavicle -8.57259e-016 -2.95692e-015
lhumerus -26.3764 -5.90191 86.0995
lradius 34.133
lwrist 20.1246
lhand -15.3703 13.6434
lfingers 7.12502
lthumb 10.8076 43.3454
rfemur -23.8695 -0.892123 29.525
rtibia 35.0815
rfoot -23.1694 -19.7795
rtoes 17.6999
lfemur -23.3808 2.70036 -18.0157
ltibia 35.7298
lfoot -9.20372 9.64733
ltoes -8.82525
